<svg xmlns="http://www.w3.org/2000/svg" xmlns:xlink="http://www.w3.org/1999/xlink" width="500" zoomAndPan="magnify" viewBox="0 0 375 374.999991" height="500" preserveAspectRatio="xMidYMid meet" version="1.0"><defs><clipPath id="018acfb79d"><path d="M 12 18.175781 L 362 18.175781 L 362 355.675781 L 12 355.675781 Z M 12 18.175781 " clip-rule="nonzero"/></clipPath></defs><rect x="-37.5" width="450" fill="#ffffff" y="-37.499999" height="449.999989" fill-opacity="1"/><rect x="-37.5" width="450" fill="#ffffff" y="-37.499999" height="449.999989" fill-opacity="1"/><rect x="-37.5" width="450" fill="#ffffff" y="-37.499999" height="449.999989" fill-opacity="1"/><g clip-path="url(#018acfb79d)"><path fill="#cd6d00" d="M 111.933594 21.160156 C 113.523438 20.09375 114.917969 18.214844 117.070312 18.753906 C 115.972656 21.164062 113.488281 22.496094 112.242188 24.800781 C 105.929688 41.347656 94.242188 41.851562 93.632812 49.585938 C 98.4375 46.789062 102.878906 43.363281 107.828125 40.769531 C 109.425781 40.027344 110.738281 38.828125 111.730469 37.386719 C 122.914062 22.207031 141.289062 19.078125 159.601562 23.542969 C 160.609375 23.660156 160.910156 24.558594 161.148438 25.40625 C 158.308594 25.800781 155.417969 25.664062 152.589844 26.082031 C 141.234375 29.429688 138.179688 44.445312 119.804688 41.488281 C 117.230469 41.5625 114.707031 40.820312 112.148438 40.859375 C 106.625 43.585938 95.46875 50.59375 92.871094 53.3125 C 94.714844 54.304688 96.851562 54.007812 98.863281 53.902344 C 102.003906 53.523438 104.515625 51.480469 107.253906 50.09375 C 116.320312 45.367188 116.917969 46.605469 129.058594 48.109375 C 133.417969 48.992188 137.875 48.242188 142.273438 48.46875 C 142.191406 48.738281 142.023438 49.289062 141.941406 49.5625 C 139.464844 50.433594 136.828125 50.550781 134.265625 50.972656 C 129.128906 52.890625 124.738281 56.59375 119.363281 57.90625 C 108.867188 58.136719 98.433594 56.507812 87.945312 56.886719 C 80.835938 62.691406 74 68.894531 68.132812 75.988281 C 72.4375 78.738281 80.015625 70.34375 83.503906 68.136719 C 86.511719 65.917969 90.257812 65.007812 93.941406 64.9375 C 112.632812 63.292969 102.605469 64.613281 114.183594 62.101562 C 114.175781 62.464844 114.15625 63.191406 114.152344 63.554688 C 111.875 64.65625 109.363281 65.171875 107.078125 66.246094 C 102.859375 68.554688 96.792969 75.519531 92.667969 76.046875 C 61.929688 80.789062 65.574219 79.269531 63.695312 81.332031 C 57.738281 88.65625 50.242188 100.324219 49.414062 103.203125 C 55.570312 103.101562 59.617188 92.414062 65.585938 89.351562 C 73.066406 85.167969 76.414062 87.433594 90.882812 80.308594 C 90.925781 80.660156 91.007812 81.367188 91.046875 81.71875 C 88.800781 83.792969 85.609375 84.542969 83.527344 86.839844 C 78.683594 92.160156 76.371094 96.632812 72.019531 98.363281 C 45.058594 108.144531 47.105469 106.703125 45.769531 109.710938 C 42.296875 117.402344 38.886719 125.21875 36.949219 133.457031 C 41.628906 133.628906 44.15625 122.5625 49.417969 117.171875 C 54.894531 112.429688 62.210938 110.789062 68.054688 106.628906 C 69.816406 105.40625 71.476562 104.046875 73.25 102.835938 C 73.292969 103.554688 73.636719 104.410156 72.976562 104.96875 C 71.269531 106.9375 68.835938 108.179688 67.371094 110.382812 C 64.453125 114.789062 62.886719 120.1875 58.914062 123.839844 C 51.5 128.625 37.011719 137.238281 35.257812 139.367188 C 33.480469 146.648438 32.488281 154.09375 31.5625 161.527344 C 35.183594 161.078125 35.667969 150.605469 40.324219 144.371094 C 44.804688 139.328125 51.214844 136.644531 56.140625 132.113281 C 57.386719 130.964844 57.472656 128.929688 59.0625 128.078125 C 59.25 130.609375 57.21875 132.488281 56.75 134.867188 C 53.425781 150.574219 50.070312 149.402344 35.890625 163.085938 C 34.429688 164.539062 32.640625 165.675781 31.453125 167.382812 C 31.054688 172.175781 31.242188 186.882812 32.503906 192.503906 L 33.402344 192.503906 C 34.464844 190.679688 35.394531 188.652344 35.34375 186.5 C 35.421875 171.3125 38.316406 173 49.414062 160.648438 C 51.082031 159.1875 51.601562 156.980469 52.105469 154.925781 C 52.339844 154.847656 52.804688 154.699219 53.039062 154.625 C 53.34375 157.085938 51.824219 159.226562 51.828125 161.648438 C 51.027344 177.5625 49.113281 171.441406 33.21875 197.007812 C 34.175781 205.207031 36.457031 213.246094 38.992188 221.101562 C 39.160156 222.109375 40.796875 221.546875 40.753906 220.679688 C 41.636719 216.464844 40.628906 212.191406 40.238281 207.984375 C 40.097656 206.515625 39.375 205.019531 39.957031 203.554688 C 41.871094 196.59375 47.183594 191.335938 50.085938 184.855469 C 50.820312 183.441406 49.847656 181.1875 51.359375 180.3125 C 53.566406 208.417969 53.875 190.992188 41.839844 224.234375 C 41.582031 225.148438 41.035156 226.105469 41.300781 227.074219 C 44.09375 234.882812 48.054688 242.203125 52.066406 249.433594 C 52.285156 249.5 52.71875 249.636719 52.933594 249.707031 C 53.160156 247.273438 53.414062 244.679688 52.367188 242.398438 C 46.277344 228.265625 50.027344 228.527344 55.203125 211.519531 C 55.753906 209.449219 54.9375 207.320312 55.433594 205.242188 C 56.214844 206.40625 56.84375 207.710938 56.863281 209.140625 C 57.191406 213.972656 62.9375 224.578125 60.199219 230.984375 C 57.558594 238.167969 56.28125 245.746094 54.558594 253.171875 C 60.546875 262.804688 69.832031 274.027344 72.277344 275.679688 C 72.890625 269.527344 64.957031 262.433594 64.742188 255.898438 C 64.890625 249.777344 66.574219 243.796875 66.9375 237.691406 C 67.195312 235.746094 66.171875 234.007812 65.964844 232.125 C 68.511719 233.308594 68.214844 236.75 69.585938 238.878906 C 78.488281 252.160156 76.21875 262.8125 74.917969 276.664062 C 74.929688 277.429688 74.46875 278.421875 75.210938 279 C 77.460938 281.242188 92.386719 295.496094 95.378906 295.417969 C 95.449219 290.175781 88.03125 283.863281 84.832031 279.359375 C 81.640625 273.351562 83.148438 266.339844 82.195312 259.890625 C 82.0625 257.792969 80.285156 256.261719 80.199219 254.15625 C 82.625 255.917969 83.328125 259.046875 85.476562 261.066406 C 89.542969 265.101562 92.367188 270.203125 94.636719 275.421875 C 96.054688 279.96875 96.226562 284.769531 96.96875 289.449219 C 97.613281 299.636719 98.15625 297.828125 101.042969 300.054688 C 107.097656 303.832031 113.273438 307.507812 119.820312 310.359375 C 119.640625 309.644531 119.777344 308.78125 119.253906 308.207031 C 116.171875 304.5625 111.605469 302.703125 108.121094 299.535156 C 103.921875 293.777344 101.824219 280.429688 100.089844 276.253906 C 99.300781 274.835938 98.082031 273.734375 97.292969 272.320312 C 99.324219 272.492188 100.347656 274.414062 101.621094 275.746094 C 103.105469 277.535156 110.6875 282.046875 114.933594 289.882812 C 118.832031 298.597656 121.738281 311.550781 125.089844 312.871094 C 133.042969 316.253906 141.265625 319.039062 149.660156 321.109375 C 149.742188 320.773438 149.910156 320.101562 149.996094 319.769531 C 147.878906 316.402344 141.246094 314.347656 135.164062 310.910156 C 128.488281 307.167969 128.929688 300.625 124.089844 293.503906 C 122.734375 291.292969 119.695312 290.585938 118.863281 287.980469 C 121.863281 288.398438 124.023438 290.722656 126.59375 292.105469 C 129.476562 293.882812 132.761719 294.929688 135.527344 296.90625 C 144.234375 304.007812 147.804688 315.558594 156.617188 322.542969 C 160.179688 323.449219 174.472656 325.667969 177.039062 325.210938 C 176.984375 320.953125 167.761719 321.054688 161.042969 317.039062 C 155.230469 313.167969 154.074219 304.953125 147.710938 301.710938 C 146.742188 301.164062 145.882812 300.4375 145.304688 299.484375 C 148.074219 299.710938 150.566406 301.136719 153.226562 301.871094 C 156.996094 303.285156 161.257812 303.457031 164.675781 305.746094 C 172.238281 310.816406 175.710938 319.929688 182.988281 325.324219 C 184.210938 325.90625 185.667969 325.582031 186.988281 325.695312 C 188.578125 325.554688 190.429688 326.039062 191.78125 324.960938 C 194.199219 323.390625 195.65625 320.828125 197.660156 318.828125 C 211.433594 301.042969 210.835938 305.550781 220.886719 301.902344 C 223.523438 301.027344 226.089844 299.773438 228.878906 299.484375 C 227.828125 301.550781 225.28125 302.003906 223.726562 303.582031 C 219.824219 307.511719 218.164062 313.246094 213.679688 316.675781 C 209.335938 319.703125 203.832031 320.117188 199.167969 322.457031 C 198.09375 322.875 197.535156 323.90625 196.921875 324.808594 C 198.179688 325.816406 199.761719 325.066406 201.199219 325.0625 C 219.421875 322.855469 217.324219 322.890625 219.777344 320.589844 C 226.449219 314.027344 230.203125 305.140625 236.800781 298.519531 C 239.761719 295.507812 243.929688 294.351562 247.445312 292.1875 C 249.988281 290.722656 252.25 288.730469 255.089844 287.832031 C 255.074219 288.183594 255.042969 288.886719 255.023438 289.242188 C 252.878906 290.9375 250.5 292.554688 249.191406 295.039062 C 246.847656 298.769531 245.855469 303.179688 243.433594 306.871094 C 239.371094 313.402344 225.273438 315.167969 223.988281 320.667969 C 228.734375 321.089844 245.460938 314.480469 250.117188 312.425781 C 257.078125 302.628906 254.582031 288.339844 271.085938 277.253906 C 273.253906 275.863281 274.054688 272.640625 276.847656 272.292969 C 276.085938 274.105469 274.230469 275.261719 273.746094 277.210938 C 270.0625 291.0625 269.015625 295.214844 266.265625 299.382812 C 262.886719 302.480469 258.472656 304.308594 255.359375 307.738281 C 254.761719 308.40625 254.601562 309.3125 254.371094 310.148438 C 261.027344 307.820312 274.855469 299.398438 276.195312 297.625 C 276.988281 295.007812 277.46875 285.113281 278.851562 278.234375 C 279.777344 273.746094 282.269531 269.804688 284.703125 265.988281 C 286.46875 263.058594 289.410156 261.03125 291.015625 257.988281 C 291.726562 256.589844 292.601562 255.257812 293.796875 254.226562 C 293.890625 254.496094 294.078125 255.03125 294.171875 255.300781 C 289.855469 260.894531 293.304688 263.59375 290.789062 275.550781 C 290.40625 277.726562 289.441406 279.796875 287.90625 281.398438 C 278.785156 291.375 279.210938 292.289062 278.988281 295.5 C 282.6875 294.339844 294.742188 283.429688 299.570312 278.46875 C 298.828125 275.171875 299.0625 271.773438 298.496094 268.453125 C 297.804688 258.546875 296.921875 255.515625 301.75 243.976562 C 302.84375 241.144531 305.085938 238.894531 305.871094 235.929688 C 306.484375 234.550781 306.503906 232.378906 308.359375 232.09375 C 304.941406 239.898438 311.496094 252.371094 308.800781 259.464844 C 306.597656 264.796875 302.21875 269.382812 301.832031 275.359375 C 304.765625 274.371094 315.550781 259.71875 319.394531 253.628906 C 319.558594 250.066406 316.027344 237.800781 315.714844 236.25 C 314.121094 228.785156 311.996094 231.34375 314.273438 220.089844 C 315.304688 214.980469 316.414062 216.527344 317.855469 206.15625 C 318.136719 206.058594 318.6875 205.863281 318.960938 205.769531 C 318.964844 207.589844 318.453125 209.425781 318.890625 211.226562 C 320.75 217.222656 323.589844 222.925781 324.800781 229.117188 C 325.691406 234.5 322.878906 239.433594 321.140625 244.324219 C 321.03125 246.152344 320.605469 248.285156 321.761719 249.863281 C 326.121094 242.804688 329.753906 235.308594 332.808594 227.597656 C 333.488281 226.390625 332.648438 225.117188 332.320312 223.953125 C 329.65625 217.03125 327.140625 210.015625 323.671875 203.453125 C 319.359375 196.710938 323.257812 190.574219 322.660156 180.730469 C 322.941406 180.691406 323.496094 180.605469 323.773438 180.558594 C 323.804688 181.78125 323.753906 183.015625 323.9375 184.226562 C 326.734375 191.421875 333.0625 196.96875 334.425781 204.753906 C 334 208.664062 331.28125 223.144531 335.097656 221.507812 C 336.050781 218.613281 342.324219 198.519531 340.464844 196.109375 C 325.128906 172.203125 324.53125 176.847656 322.953125 167.960938 C 322.375 165.453125 322.835938 162.839844 322.214844 160.339844 C 321.855469 158.355469 320.734375 156.230469 321.785156 154.28125 C 322.5625 156.304688 322.820312 158.636719 324.382812 160.261719 C 327.527344 163.71875 331.066406 166.804688 334.195312 170.269531 C 342.382812 180.308594 336.472656 185.304688 340.554688 191.976562 C 340.796875 192.582031 341.214844 192.742188 341.816406 192.449219 C 342.625 188.621094 343.429688 174.519531 342.789062 167.332031 C 325.289062 149.363281 321.492188 152.9375 317.574219 135.238281 C 316.992188 132.75 315.207031 130.664062 315.128906 128.035156 C 316.808594 129.117188 316.960938 131.351562 318.535156 132.535156 C 323.613281 137.035156 330.253906 139.714844 334.460938 145.203125 C 338.632812 151.613281 338.945312 160.5625 342.375 161 C 342.390625 154.199219 339.070312 139.738281 339.019531 139.207031 C 331.289062 133.5 322.863281 128.835938 314.886719 123.503906 C 311.125 119.644531 309.578125 114.246094 306.472656 109.910156 C 304.59375 107.796875 302.175781 106.207031 300.480469 103.921875 C 300.785156 103.609375 301.101562 103.300781 301.414062 102.984375 C 314.011719 113.425781 322.90625 112.203125 327.734375 121.089844 C 329.597656 123.707031 333.71875 134.175781 337.292969 133.417969 C 335 124.523438 331.5625 115.902344 327.335938 107.761719 C 319.949219 104.339844 312.078125 102.050781 304.457031 99.1875 C 302.582031 98.433594 300.417969 98.042969 299 96.488281 C 295.890625 93.324219 293.320312 89.683594 290.273438 86.464844 C 288.402344 84.507812 285.671875 83.796875 283.578125 82.15625 C 282.941406 81.765625 283.097656 80.917969 282.9375 80.308594 C 286.167969 81.238281 288.882812 83.453125 292.183594 84.191406 C 297.601562 85.953125 303.457031 86.472656 308.515625 89.25 C 315.355469 92.984375 318.214844 102.835938 324.796875 103.152344 C 321.121094 95.355469 315.925781 88.347656 310.734375 81.492188 C 309.355469 79.035156 299.0625 78.914062 281.335938 76.015625 C 277.988281 75.457031 272.296875 70 268.769531 67.230469 C 266.496094 65.449219 263.523438 65.179688 260.980469 63.957031 C 260.214844 63.679688 259.957031 62.847656 259.65625 62.1875 C 262.980469 62.363281 266.042969 63.988281 269.386719 64.054688 C 274.109375 64.683594 278.898438 64.667969 283.625 65.226562 C 293.550781 66.578125 296.1875 76.625 305.71875 76.609375 C 305.730469 75.253906 304.710938 74.335938 303.902344 73.394531 C 298.242188 67.585938 292.605469 61.660156 286.074219 56.832031 C 275.167969 56.660156 256.394531 58.722656 253.652344 57.625 C 249.757812 56.230469 246.234375 54.019531 242.574219 52.128906 C 239.523438 50.148438 235.699219 50.839844 232.363281 49.675781 C 232.332031 49.339844 232.257812 48.65625 232.222656 48.3125 C 250.460938 49.03125 251.980469 45.917969 259.4375 46.992188 C 268.648438 49.144531 272.851562 56.410156 281.179688 53.359375 C 278.074219 49.929688 266.429688 43.117188 262.367188 40.902344 C 259.730469 40.449219 249.375 43.570312 240.984375 39.933594 C 234.457031 36.863281 230.503906 30.273438 224.113281 27.019531 C 220.628906 25.128906 216.539062 26.339844 212.859375 25.230469 C 214.703125 22.449219 218.527344 23.085938 221.363281 22.261719 C 256.746094 19.640625 259.730469 37.207031 265.5 40.265625 C 269.777344 42.730469 274.023438 45.257812 278.058594 48.109375 C 278.855469 48.695312 279.722656 49.167969 280.65625 49.507812 C 279.59375 42.058594 268.382812 40.511719 262.746094 26.578125 C 260.78125 21.550781 257.613281 21.367188 257.417969 18.613281 C 259.515625 18.460938 260.871094 20.21875 262.453125 21.273438 C 265.144531 23.460938 268.691406 24.070312 271.519531 26.03125 C 280.09375 31.238281 282 45.621094 284.304688 52.335938 C 286.085938 54.578125 288.832031 55.800781 290.796875 57.875 C 294.394531 60.867188 297.691406 64.1875 301.089844 67.402344 C 302.558594 68.9375 303.875 70.65625 305.628906 71.890625 C 305.878906 62.921875 293.332031 57.402344 291.886719 47.128906 C 291.429688 43.425781 290.8125 39.21875 287.625 36.800781 C 285.84375 34.949219 282.871094 34.015625 282.121094 31.359375 C 284.652344 30.753906 286.175781 32.972656 287.75 34.5 C 291.460938 38.359375 296.253906 40.957031 300.003906 44.777344 C 309.582031 55.03125 307.40625 68.660156 308.550781 75.386719 C 313.136719 81.105469 317.695312 86.871094 321.570312 93.113281 C 322.421875 94.359375 322.976562 95.9375 324.4375 96.625 C 324.851562 89.191406 316.609375 83.542969 316.609375 72.003906 C 316.621094 68.414062 316.621094 64.753906 315.398438 61.332031 C 313.988281 57.503906 308.984375 54.417969 308.707031 51.847656 C 309.328125 51.8125 309.957031 51.78125 310.582031 51.765625 C 312.128906 53.378906 313.511719 55.140625 314.777344 56.976562 C 318.917969 62.242188 325.019531 66.347656 326.917969 73.082031 C 328.679688 81.089844 326.296875 89.21875 326.605469 97.292969 C 326.050781 103.359375 329.921875 104.945312 337.414062 125.976562 C 337.703125 126.046875 338.269531 126.183594 338.554688 126.257812 C 339 118.039062 333.007812 111.609375 335.867188 100.683594 C 336.402344 97.40625 337.257812 94.09375 336.78125 90.753906 C 335.675781 86.230469 332.234375 82.777344 330.78125 78.394531 C 331.4375 78.390625 332.394531 77.855469 332.886719 78.550781 C 335.878906 82.171875 337.652344 86.582031 340.132812 90.535156 C 342.695312 95.191406 345.496094 100.082031 345.550781 105.550781 C 345.214844 114.320312 342.007812 122.578125 340.007812 131.035156 C 339.023438 135.097656 342.335938 139.195312 343.832031 154.5625 C 344.15625 154.644531 344.808594 154.804688 345.136719 154.886719 C 345.671875 149.238281 343.746094 143.566406 344.984375 137.941406 C 346.007812 132.691406 349.589844 128.386719 350.679688 123.15625 C 351.414062 118.183594 348.175781 113.839844 347.761719 109 C 348.144531 109.007812 348.914062 109.011719 349.292969 109.019531 C 350.664062 110.964844 357.28125 128.441406 355.546875 138.347656 C 352.671875 148.054688 345.824219 157.257812 344.734375 161.691406 C 345.714844 170.953125 345.21875 180.289062 344.4375 189.546875 C 348.820312 189.132812 345.773438 175.128906 352.816406 165.671875 C 362.355469 152.3125 357.390625 151.871094 358.34375 141.953125 C 358.699219 141.984375 359.414062 142.050781 359.765625 142.085938 C 361.128906 146.222656 360.988281 150.652344 361.320312 154.949219 C 362.035156 158.640625 361.832031 162.410156 361.855469 166.148438 C 362.125 172.878906 355.539062 180.328125 350.566406 186.605469 C 344.726562 194.140625 343.671875 192.5 343.019531 199.140625 C 342.0625 205.367188 340.21875 211.40625 338.847656 217.542969 C 341.691406 216.996094 342.308594 207.882812 346.410156 202.214844 C 349.125 197.441406 356.46875 194.992188 358.375 188.265625 C 359.132812 185.46875 359.355469 182.539062 360.296875 179.789062 C 360.730469 178.972656 362.046875 179.695312 361.832031 180.542969 C 361.34375 185.453125 359.804688 190.214844 359.410156 195.148438 C 356.582031 206.519531 357.230469 205.46875 350.355469 211.640625 C 346.589844 215.101562 342.445312 218.109375 338.390625 221.214844 C 336.699219 222.363281 336.308594 224.5 335.605469 226.285156 C 333.578125 232.226562 330.484375 237.726562 328.097656 243.5 C 332.941406 243.207031 333.636719 228.640625 344.246094 225.570312 C 356.554688 221.566406 353.285156 214.855469 357.148438 212.84375 C 357.4375 214.089844 357.285156 215.371094 356.789062 216.550781 C 346.667969 241.527344 344.082031 237.0625 326.058594 246.890625 C 325.339844 247.8125 319.078125 259.542969 309.582031 270.542969 C 309.433594 270.914062 309.140625 271.644531 308.996094 272.007812 C 316.253906 269.792969 316.980469 260.738281 325.976562 256.816406 C 329.457031 255.457031 333.332031 255.039062 336.492188 252.929688 C 342.191406 249.085938 339.851562 249.980469 345.066406 242.765625 C 345.421875 242.777344 346.132812 242.800781 346.492188 242.8125 C 346.746094 246.300781 344.054688 248.925781 342.527344 251.816406 C 332.039062 268.292969 333.816406 265.203125 308.402344 274.816406 C 306.855469 275.433594 305.101562 275.753906 303.910156 277.019531 C 289.777344 291.972656 286.21875 291.730469 285.699219 294.648438 C 293.960938 292.953125 297.6875 283.652344 305.847656 281.804688 C 310.097656 280.746094 314.738281 282.441406 318.820312 280.460938 C 321.050781 279.101562 322.746094 277.039062 324.828125 275.484375 C 325.890625 274.8125 326.402344 276.566406 325.796875 277.25 C 323.855469 280.398438 312.800781 291.128906 306.921875 293.703125 C 300.828125 296.585938 282.632812 295.953125 280.425781 297.570312 C 274.496094 301.855469 268.285156 305.769531 261.75 309.066406 C 260.726562 309.601562 259.621094 310.082031 259.015625 311.128906 C 260.628906 311.183594 262.300781 311.320312 263.875 310.851562 C 269.101562 309.515625 272.410156 304.257812 277.871094 303.496094 C 282.328125 303.191406 286.855469 304.023438 291.261719 303.078125 C 298.359375 301.714844 294.769531 303.109375 303.070312 297.863281 C 303.339844 298.035156 303.871094 298.375 304.144531 298.550781 C 303.195312 301.449219 300.296875 302.957031 297.972656 304.628906 C 291.894531 308.84375 285.566406 313.851562 277.84375 314.121094 C 254.269531 312.804688 254.773438 312.347656 252.507812 313.636719 C 247.097656 316.117188 241.515625 318.207031 235.859375 320.035156 C 234.140625 320.601562 232.367188 321.03125 230.757812 321.851562 C 235.542969 325.230469 242.917969 320.128906 247.527344 318.621094 C 250.355469 317.746094 253.113281 319.21875 255.820312 319.863281 C 259.675781 320.964844 263.730469 320.628906 267.6875 320.554688 C 271.332031 320.675781 274.179688 318.035156 277.585938 317.199219 C 277.777344 317.421875 278.15625 317.859375 278.34375 318.085938 C 276.183594 320.53125 273.027344 321.742188 270.0625 322.914062 C 263.003906 325.652344 255.820312 328.84375 248.097656 328.75 C 233.289062 326.921875 229.34375 323.808594 226.109375 322.894531 C 205.6875 328.175781 203.03125 325.554688 200.792969 327.996094 C 203.015625 328.695312 205.347656 329.699219 207.714844 329.039062 C 211.328125 328.527344 215.078125 327.011719 218.683594 328.3125 C 220.644531 328.949219 222.234375 330.332031 224.117188 331.140625 C 228.136719 333.082031 235.816406 334.433594 245.105469 332.578125 C 245.269531 332.835938 245.605469 333.355469 245.769531 333.613281 C 243.246094 335.742188 239.742188 335.738281 236.644531 336.25 C 215.386719 340.109375 214.902344 338.140625 207.617188 334.800781 C 203.628906 332.859375 199.800781 330.578125 196.316406 327.832031 C 194.863281 327.605469 193.386719 327.765625 191.933594 327.835938 C 193.132812 329.515625 195.199219 330.222656 196.765625 331.503906 C 213.28125 343.957031 212.882812 351.914062 227.964844 352.007812 C 220.984375 354.425781 213.5 355.648438 206.113281 355.238281 C 202.027344 336.03125 190.574219 327.824219 186.511719 328.324219 C 176.539062 331.324219 170.472656 344.769531 168.023438 355.335938 C 160.605469 355.503906 153.097656 354.496094 146.113281 351.960938 C 161.816406 351.710938 161.640625 343.113281 178.296875 330.894531 C 179.527344 329.902344 181.28125 329.394531 181.917969 327.828125 C 180.292969 327.898438 178.375 327.175781 177.046875 328.4375 C 172.996094 331.558594 168.472656 334.019531 163.824219 336.128906 C 156.792969 339.957031 148.480469 338.121094 141 336.910156 C 137.070312 335.742188 132.71875 336.230469 129.046875 334.203125 C 128.886719 333.667969 128.757812 333.128906 128.671875 332.582031 C 131.792969 332.835938 134.851562 333.886719 138.007812 333.597656 C 141.347656 333.140625 144.789062 333.179688 148.003906 332.027344 C 151.640625 331 154.476562 327.855469 158.394531 327.714844 C 161.558594 327.871094 164.613281 328.855469 167.746094 329.234375 C 169.578125 329.472656 171.300781 328.714844 173.011719 328.195312 C 173.039062 327.957031 173.09375 327.480469 173.125 327.242188 C 164.667969 326.289062 156.226562 324.992188 147.96875 322.855469 C 141.398438 326.039062 134.191406 327.65625 127 328.6875 C 118.609375 329.097656 110.828125 325.414062 103.136719 322.585938 C 100.855469 321.542969 98.386719 320.625 96.625 318.757812 C 95.949219 318.191406 96.191406 316.761719 97.289062 317.425781 C 102.839844 319.386719 102.167969 321.375 115.929688 320.449219 C 119.6875 320.078125 123.292969 317.476562 127.125 318.785156 C 133.132812 320.523438 134.820312 324.007812 142.433594 322.574219 C 142.601562 322.292969 142.945312 321.730469 143.113281 321.449219 C 135.734375 319.429688 128.511719 316.78125 121.566406 313.554688 C 119.554688 312.410156 117.207031 312.910156 115.015625 313 C 110.015625 313.609375 104.953125 313.257812 99.964844 313.933594 C 96.8125 314.332031 93.585938 314.058594 90.554688 313.105469 C 84.417969 310.96875 72.578125 302.40625 70.636719 300.128906 C 70.304688 299.445312 70.226562 297.84375 71.34375 297.972656 C 74.804688 300.101562 77.363281 304.496094 93.972656 303.429688 C 102.472656 302.640625 106.046875 312.75 115.203125 311.0625 C 114.675781 310.449219 114.050781 309.953125 113.335938 309.613281 C 106.527344 305.984375 99.890625 302.015625 93.625 297.515625 C 89.480469 296.246094 85.007812 296.628906 80.746094 295.898438 C 69.859375 295.222656 66.292969 294.921875 57.320312 286.472656 C 54.109375 283.363281 50.414062 280.648438 48.085938 276.753906 C 48.226562 276.347656 48.507812 275.539062 48.652344 275.128906 C 51.324219 276.496094 52.988281 279.195312 55.628906 280.609375 C 60.199219 282.53125 65.355469 280.421875 69.953125 282.269531 C 77.183594 284.816406 80.800781 293.410156 88.726562 294.476562 C 88.3125 293.707031 87.789062 293.007812 87.089844 292.484375 C 81.195312 287.777344 75.636719 282.65625 70.503906 277.132812 C 68.386719 274.546875 46.59375 269.542969 40.960938 264.265625 C 35.984375 259.511719 32.605469 253.425781 29.132812 247.5625 C 28.226562 245.898438 26.765625 243.765625 28.523438 242.152344 C 32.53125 246.351562 31.75 249.632812 38.617188 253.480469 C 42.261719 255.535156 46.648438 255.683594 50.242188 257.847656 C 56.640625 261.382812 59.34375 271.113281 65.742188 272.117188 C 64.429688 269.976562 62.609375 268.21875 61.066406 266.25 C 39.558594 237.742188 58.496094 253.367188 31.40625 238.578125 C 26.335938 235.730469 23.035156 228.777344 19.507812 221.4375 C 18.355469 218.671875 16.453125 215.953125 17.207031 212.804688 C 19.9375 215.046875 19.882812 219.230469 22.636719 221.507812 C 25.753906 225.027344 30.898438 225.039062 34.476562 227.867188 C 40.570312 232.4375 41.5625 242.199219 46.234375 243.96875 C 46.070312 243.164062 45.859375 242.371094 45.453125 241.65625 C 36.996094 224.804688 38.203125 222.742188 36.28125 221.585938 C 16.96875 207.132812 16.933594 205.628906 15.046875 196.238281 C 13.6875 186 12.003906 182.722656 12.609375 179.488281 C 12.945312 179.484375 13.617188 179.472656 13.953125 179.460938 C 15.136719 183.699219 15.011719 188.5 17.859375 192.097656 C 20.746094 196.199219 25.589844 198.402344 28.230469 202.695312 C 32.714844 209.921875 32.261719 216.75 35.363281 217.109375 C 33.601562 210.28125 31.632812 203.472656 30.8125 196.445312 C 30.5 192.617188 22.183594 186.863281 14.328125 173.722656 C 11.355469 168.03125 12.3125 161.390625 12.859375 155.257812 C 13.644531 150.890625 12.65625 146.167969 14.597656 142.042969 C 14.964844 142.03125 15.699219 142.019531 16.0625 142.015625 C 16.351562 146.023438 15.242188 149.976562 15.550781 153.980469 C 17.40625 163.628906 24.5 165.347656 26.09375 178.207031 C 26.828125 182.625 26.988281 189 29.753906 189.019531 C 29.34375 181.582031 28.414062 174.109375 29.15625 166.644531 C 29.113281 164.222656 30.058594 161.546875 28.695312 159.335938 C 18.953125 140.847656 15.605469 137.660156 20.488281 121.667969 C 21.679688 117.785156 22.441406 113.726562 24.335938 110.101562 C 24.734375 109.285156 25.589844 108.882812 26.304688 108.394531 C 26.617188 112.925781 23.402344 116.945312 23.394531 121.464844 C 23.859375 127.507812 28.210938 132.292969 29.300781 138.15625 C 30.292969 149.566406 27.636719 151.902344 29.589844 155.082031 C 31.210938 153.085938 29.636719 152.777344 34.070312 135.183594 C 34.933594 131 33.058594 126.996094 32.011719 123.039062 C 27.082031 102.769531 26.933594 103.3125 36.414062 86.484375 C 38.066406 83.761719 39.289062 80.722656 41.5 78.375 C 42.089844 78.222656 42.691406 78.128906 43.308594 78.101562 C 42.332031 83.105469 37.738281 86.679688 37.324219 91.871094 C 37.058594 97.601562 39.707031 103.117188 38.925781 108.871094 C 38.714844 114.863281 35.167969 120.308594 35.84375 126.390625 C 36.101562 126.355469 36.625 126.277344 36.890625 126.238281 C 39.15625 118.480469 42.730469 111.167969 46.257812 103.925781 C 48.890625 98.628906 46.699219 86.5625 46.808594 81.875 C 46.992188 73.15625 45.167969 71.621094 57.050781 59.8125 C 59.449219 57.410156 60.984375 54.265625 63.558594 52.019531 C 64.125 51.832031 64.707031 51.695312 65.308594 51.625 C 65.160156 52.46875 65.257812 53.480469 64.519531 54.085938 C 57.101562 61.996094 58.367188 60.910156 57.496094 72.542969 C 57.851562 82.253906 49.628906 89.519531 49.734375 96.417969 C 52.035156 95.914062 49.949219 95.136719 65.523438 75.617188 C 66.699219 70.914062 65.136719 59.601562 70.492188 49.542969 C 73.128906 44.988281 77.480469 41.824219 81.59375 38.695312 C 84.382812 36.769531 86.527344 34.082031 89.160156 31.972656 C 89.828125 31.351562 90.769531 31.320312 91.609375 31.113281 C 91.609375 31.515625 91.617188 32.328125 91.617188 32.734375 C 89.433594 34.796875 86.703125 36.28125 84.824219 38.664062 C 81.878906 42.742188 83.097656 48.253906 80.515625 52.472656 C 76.585938 59.507812 68.902344 64.28125 68.597656 71.675781 C 70.375 70.664062 71.585938 68.949219 73.019531 67.53125 C 75.886719 64.707031 78.703125 61.820312 81.824219 59.261719 C 84.242188 56.871094 87.21875 55.125 89.574219 52.679688 C 92.269531 48.046875 92.71875 31.128906 104.292969 25.101562 C 106.789062 23.6875 109.671875 22.988281 111.933594 21.160156 Z M 111.933594 21.160156 " fill-opacity="1" fill-rule="nonzero"/></g><path fill="#cd6d00" d="M 183.90625 61.140625 C 185.988281 60.976562 188.074219 61.03125 190.152344 61.164062 C 190.753906 66.828125 190.132812 72.566406 190.488281 78.253906 C 194.222656 74.53125 196.542969 69.554688 200.332031 65.882812 C 199.964844 106.742188 200.894531 106.875 199.800781 108.503906 C 196.742188 112.746094 193.394531 116.792969 190.511719 121.15625 C 190.292969 123.875 190.253906 126.675781 190.597656 129.390625 C 201.976562 119.050781 211.601562 122.273438 231.859375 119.882812 C 240.097656 118.578125 248.84375 116.785156 255.304688 111.113281 C 257.457031 109.246094 258.421875 106.515625 259.066406 103.828125 C 261.546875 100.953125 266.441406 100.4375 269.308594 103.03125 C 271.34375 105.550781 271.207031 109.375 269.335938 111.949219 C 267.953125 113.585938 265.847656 114.273438 264.074219 115.375 C 264.523438 116.546875 303.765625 204.796875 306.378906 206.96875 C 281.484375 232.480469 241.152344 230.652344 218.804688 206.890625 C 221.449219 205.855469 217.738281 212.550781 258.929688 121.804688 C 259.710938 120.109375 260.53125 118.425781 261.070312 116.636719 C 238.832031 122.007812 199.539062 124.601562 190.675781 145.085938 C 190.277344 146.023438 190.210938 270.238281 190.5625 273.460938 C 193.410156 271.925781 196.265625 270.40625 199.1875 269.023438 C 195.808594 277.453125 191.644531 285.554688 188.070312 293.910156 C 187.695312 294.394531 187.667969 295.792969 186.789062 295.226562 C 182.832031 286.464844 178.792969 277.746094 174.867188 268.96875 C 177.972656 270.230469 180.738281 272.207031 183.867188 273.445312 C 183.941406 254 183.953125 153.640625 183.859375 145.765625 C 175.628906 124.46875 132.84375 121.527344 113.191406 116.628906 C 113.59375 118.21875 111.203125 112.785156 152.839844 204.574219 C 153.210938 205.761719 154.128906 206.511719 155.210938 207.035156 C 132.476562 231.441406 90.929688 231.585938 68.027344 206.972656 C 70.175781 205.0625 108.835938 118.632812 110.09375 115.371094 C 108.378906 114.351562 106.46875 113.550781 105.019531 112.152344 C 100.082031 105.492188 106.914062 97.40625 114.910156 103.347656 C 116.265625 106.269531 115.332031 111.914062 129.453125 116.945312 C 150.78125 124.28125 168.238281 116.855469 181.132812 127.433594 C 182.015625 128.132812 182.898438 128.839844 183.855469 129.4375 C 183.921875 126.800781 183.972656 124.160156 183.894531 121.523438 C 180.960938 116.816406 177.230469 112.625 174.15625 108.003906 C 173.929688 106.535156 174.058594 66.050781 174.058594 65.84375 C 178.890625 71.492188 181.730469 76.75 183.84375 78.285156 C 184.03125 72.570312 183.859375 66.855469 183.90625 61.140625 M 185.675781 64.6875 C 185.917969 67.421875 185.132812 70.335938 186.199219 72.933594 C 188.769531 71.792969 188.46875 75.265625 188.417969 64.492188 C 187.503906 64.558594 186.589844 64.613281 185.675781 64.6875 M 191.191406 82.242188 C 189.859375 83.726562 190.324219 85.871094 190.148438 87.6875 C 190.425781 87.613281 190.976562 87.457031 191.257812 87.382812 C 193.210938 85.050781 194.871094 82.464844 196.78125 80.085938 C 198.289062 78.363281 197.644531 75.921875 197.597656 73.847656 C 195.269531 76.492188 193.382812 79.484375 191.191406 82.242188 M 176.34375 74.253906 C 176.34375 75.699219 176.277344 77.140625 176.371094 78.582031 C 177.761719 80.988281 179.660156 83.054688 181.257812 85.320312 C 182.011719 86.316406 182.546875 87.707031 183.980469 87.820312 C 183.917969 86.25 184.191406 84.617188 183.738281 83.097656 C 182.429688 81.09375 180.816406 79.316406 179.496094 77.320312 C 178.621094 76.136719 177.949219 74.546875 176.34375 74.253906 M 194.863281 87.0625 C 193.371094 89.242188 191.566406 91.203125 190.191406 93.460938 C 190.035156 94.742188 190.085938 96.042969 190.085938 97.335938 C 190.371094 97.207031 190.941406 96.960938 191.226562 96.839844 C 199.480469 85.539062 197.597656 89.472656 197.738281 83.882812 C 196.359375 84.5 195.722656 85.917969 194.863281 87.0625 M 176.324219 84.011719 C 176.355469 85.277344 176.171875 86.589844 176.480469 87.839844 C 177.601562 89.808594 179.167969 91.476562 180.453125 93.332031 C 181.476562 94.746094 182.335938 96.378906 183.910156 97.269531 C 183.960938 95.992188 184.03125 94.703125 183.878906 93.433594 C 182.070312 90.253906 179.632812 87.511719 177.449219 84.605469 C 177.167969 84.457031 176.605469 84.160156 176.324219 84.011719 M 176.375 93.15625 C 176.308594 94.527344 176.253906 95.910156 176.386719 97.28125 C 177.628906 99.179688 179.167969 100.875 180.386719 102.792969 C 181.335938 104.054688 182.144531 105.730469 183.878906 105.984375 C 183.851562 104.761719 184.082031 103.511719 183.824219 102.308594 C 178.109375 94.175781 177.648438 93.746094 176.375 93.15625 M 193.90625 97.65625 C 192.800781 99.277344 191.511719 100.777344 190.421875 102.410156 C 190.3125 103.714844 190.371094 105.027344 190.40625 106.335938 C 191.023438 106.007812 191.683594 105.6875 192.039062 105.050781 C 193.867188 102.40625 195.992188 99.976562 197.765625 97.300781 C 197.898438 95.855469 197.796875 94.394531 197.675781 92.953125 C 196.015625 94.164062 195.09375 96.035156 193.90625 97.65625 M 193.945312 107.03125 C 192.699219 108.761719 191.230469 110.335938 190.207031 112.210938 C 190 113.378906 190.335938 114.558594 190.4375 115.71875 C 193.082031 113.941406 194.378906 110.765625 196.515625 108.445312 C 198.171875 106.914062 197.78125 104.597656 197.6875 102.582031 C 196.03125 103.679688 195.148438 105.515625 193.945312 107.03125 M 176.304688 102.894531 C 176.332031 104.117188 176.210938 105.355469 176.429688 106.574219 C 177.546875 108.40625 178.980469 110.019531 180.15625 111.816406 C 181.300781 113.285156 182.199219 115.074219 183.917969 115.972656 C 183.636719 110.253906 185.742188 114.605469 178.394531 104.304688 C 177.921875 103.539062 177.164062 103.082031 176.304688 102.894531 M 73.328125 201.113281 C 72.566406 202.886719 71.53125 204.578125 71.234375 206.515625 C 98.019531 206.609375 124.800781 206.574219 151.585938 206.53125 C 150.257812 202.714844 112.453125 119.390625 111.160156 117.960938 C 98.441406 145.625 85.945312 173.398438 73.328125 201.113281 M 262.503906 118.261719 C 220.8125 210.152344 223.046875 204.742188 222.78125 206.542969 C 249.5625 206.585938 276.34375 206.582031 303.128906 206.535156 C 302.507812 204.316406 279.90625 155.0625 263.859375 119.574219 C 263.582031 118.941406 263.351562 118.164062 262.503906 118.261719 Z M 262.503906 118.261719 " fill-opacity="1" fill-rule="nonzero"/></svg>